<svg width="30" height="30" fill="none" xmlns="http://www.w3.org/2000/svg"><path d="M26.375 1.875H3.869C2.838 1.875 2 2.725 2 3.768v22.464c0 1.043.838 1.893 1.87 1.893h22.505c1.031 0 1.875-.85 1.875-1.893V3.768a1.888 1.888 0 00-1.875-1.893zm-16.441 22.5H6.043V11.848h3.896v12.527h-.005zM7.988 10.137a2.257 2.257 0 010-4.512 2.26 2.26 0 012.256 2.256 2.253 2.253 0 01-2.256 2.256zm16.53 14.238h-3.891v-6.094c0-1.453-.03-3.322-2.021-3.322-2.028 0-2.338 1.582-2.338 3.217v6.199h-3.891V11.848h3.732v1.71h.053c.522-.984 1.793-2.02 3.686-2.02 3.937 0 4.67 2.595 4.67 5.97v6.867z" fill="#000" fill-opacity=".5"/></svg>