<svg width="35" height="35" fill="none" xmlns="http://www.w3.org/2000/svg"><path d="M17.5 6.563c-7.292 0-13.519 4.535-16.042 10.937 2.523 6.402 8.75 10.938 16.042 10.938 7.292 0 13.519-4.536 16.042-10.938-2.523-6.402-8.75-10.938-16.042-10.938zm0 18.229a7.294 7.294 0 01-7.292-7.292 7.294 7.294 0 017.292-7.292 7.294 7.294 0 017.292 7.292 7.294 7.294 0 01-7.292 7.292zm0-11.667a4.37 4.37 0 00-4.375 4.375 4.37 4.37 0 004.375 4.375 4.37 4.37 0 004.375-4.375 4.37 4.37 0 00-4.375-4.375z" fill="#000" fill-opacity=".8"/></svg>